HIERARCHY
ROOT Hips
{
    OFFSET 0.00000 0.00000 0.00000
    CHANNELS 6 Xposition Yposition Zposition Zrotation Yrotation Xrotation 
    JOINT LHipJoint
    {
        OFFSET 0 0 0
        CHANNELS 3 Zrotation Yrotation Xrotation
        JOINT LeftUpLeg
        {
            OFFSET 1.85590 -1.73949 0.84976
            CHANNELS 3 Zrotation Yrotation Xrotation
            JOINT LeftLeg
            {
                OFFSET 2.36836 -6.50702 0.00000
                CHANNELS 3 Zrotation Yrotation Xrotation
                JOINT LeftFoot
                {
                    OFFSET 2.53268 -6.95849 0.00000
                    CHANNELS 3 Zrotation Yrotation Xrotation
                    JOINT LeftToeBase
                    {
                        OFFSET 0.15935 -0.43781 1.94506
                        CHANNELS 3 Zrotation Yrotation Xrotation
                        End Site
                        {
                            OFFSET 0.00000 0.00000 1.00661
                        }
                    }
                }
            }
        }
    }
    JOINT RHipJoint
    {
        OFFSET 0 0 0
        CHANNELS 3 Zrotation Yrotation Xrotation
        JOINT RightUpLeg
        {
            OFFSET -1.68297 -1.73949 0.84976
            CHANNELS 3 Zrotation Yrotation Xrotation
            JOINT RightLeg
            {
                OFFSET -2.44709 -6.72334 0.00000
                CHANNELS 3 Zrotation Yrotation Xrotation
                JOINT RightFoot
                {
                    OFFSET -2.43843 -6.69953 0.00000
                    CHANNELS 3 Zrotation Yrotation Xrotation
                    JOINT RightToeBase
                    {
                        OFFSET -0.20854 -0.57295 2.02172
                        CHANNELS 3 Zrotation Yrotation Xrotation
                        End Site
                        {
                            OFFSET -0.00000 0.00000 1.05594
                        }
                    }
                }
            }
        }
    }
    JOINT LowerBack
    {
        OFFSET 0 0 0
        CHANNELS 3 Zrotation Yrotation Xrotation
        JOINT Spine
        {
            OFFSET -0.01560 2.23971 -0.03712
            CHANNELS 3 Zrotation Yrotation Xrotation
            JOINT Spine1
            {
                OFFSET 0.05490 2.19225 -0.19086
                CHANNELS 3 Zrotation Yrotation Xrotation
                JOINT Neck
                {
                    OFFSET 0 0 0
                    CHANNELS 3 Zrotation Yrotation Xrotation
                    JOINT Neck1
                    {
                        OFFSET -0.12403 1.43168 0.27585
                        CHANNELS 3 Zrotation Yrotation Xrotation
                        JOINT Head
                        {
                            OFFSET 0.17855 1.46173 -0.32578
                            CHANNELS 3 Zrotation Yrotation Xrotation
                            End Site
                            {
                                OFFSET 0.07217 1.51590 -0.14537
                            }
                        }
                    }
                }
                JOINT LeftShoulder
                {
                    OFFSET 0 0 0
                    CHANNELS 3 Zrotation Yrotation Xrotation
                    JOINT LeftArm
                    {
                        OFFSET 3.27650 0.85634 0.05396
                        CHANNELS 3 Zrotation Yrotation Xrotation
                        JOINT LeftForeArm
                        {
                            OFFSET 4.96755 0.00000 0.00000
                            CHANNELS 3 Zrotation Yrotation Xrotation
                            JOINT LeftHand
                            {
                                OFFSET 3.35751 0.00000 0.00000
                                CHANNELS 3 Zrotation Yrotation Xrotation
                                JOINT LeftFingerBase
                                {
                                    OFFSET 0 0 0
                                    CHANNELS 3 Zrotation Yrotation Xrotation
                                    JOINT LeftHandIndex1
                                    {
                                        OFFSET 0.79697 0.00000 0.00000
                                        CHANNELS 3 Zrotation Yrotation Xrotation
                                        End Site
                                        {
                                            OFFSET 0.64254 0.00000 0.00000
                                        }
                                    }
                                }
                                JOINT LThumb
                                {
                                    OFFSET 0 0 0
                                    CHANNELS 3 Zrotation Yrotation Xrotation
                                    End Site
                                    {
                                        OFFSET 0.65235 0.00000 0.65235
                                    }
                                }
                            }
                        }
                    }
                }
                JOINT RightShoulder
                {
                    OFFSET 0 0 0
                    CHANNELS 3 Zrotation Yrotation Xrotation
                    JOINT RightArm
                    {
                        OFFSET -3.24434 1.02034 0.34688
                        CHANNELS 3 Zrotation Yrotation Xrotation
                        JOINT RightForeArm
                        {
                            OFFSET -5.21859 0.00000 0.00000
                            CHANNELS 3 Zrotation Yrotation Xrotation
                            JOINT RightHand
                            {
                                OFFSET -3.36504 0.00000 0.00000
                                CHANNELS 3 Zrotation Yrotation Xrotation
                                JOINT RightFingerBase
                                {
                                    OFFSET 0 0 0
                                    CHANNELS 3 Zrotation Yrotation Xrotation
                                    JOINT RightHandIndex1
                                    {
                                        OFFSET -0.62044 0.00000 0.00000
                                        CHANNELS 3 Zrotation Yrotation Xrotation
                                        End Site
                                        {
                                            OFFSET -0.50022 0.00000 0.00000
                                        }
                                    }
                                }
                                JOINT RThumb
                                {
                                    OFFSET 0 0 0
                                    CHANNELS 3 Zrotation Yrotation Xrotation
                                    End Site
                                    {
                                        OFFSET -0.50786 0.00000 0.50786
                                    }
                                }
                            }
                        }
                    }
                }
            }
        }
    }
}
MOTION
Frames: 24
Frame Time: 0.0083333
7.4882 15.9816 -35.4705 0 0 0 0 0 0 0 0 0 0 0 0 0 0 0 0 0 0 0 0 0 0 0 0 0 0 0 0 0 0 0 0 0 0 0 0 0 0 0 0 0 0 0 0 0 0 0 0 0 0 0 0 0 0 0 0 0 0 0 0 0 0 0 0 0 0 0 0 0 0 0 0 0 0 0 0 0 0 0 0 0 0 0 0 0 0 0 0 0 0 0 0 0
7.4882 15.9816 -35.4705 0 0 0 0 0 0 0 0 0 0 0 0 0 0 0 0 0 0 0 0 0 0 0 0 0 0 0 0 0 0 0 0 0 0 0 0 0 0 0 0 0 0 0 0 0 0 0 0 0 0 0 -7 -10 0 -75 0 0 0 0 0 0 0 -90 0 0 0 0 0 0 0 0 0 7 10 0 75 0 0 0 0 0 0 0 -90 0 0 0 0 0 0 0 0 0
7.4882 15.9816 -35.4705 0 0 0 0 0 0 0 0 0 0 0 0 0 0 0 0 0 0 0 0 0 0 0 0 0 0 0 0 0 0 0 0 0 0 0 0 0 0 0 0 0 0 0 0 0 0 0 0 0 0 0 -6.825 -9.75 0 -73.125 0 0 0 0 0 0 0 -90 0 0 0 0 0 0 0 0 0 7.325 10 -0.5 74.875 1 0 0.25 0.25 0 0 0 -86.5 0 0 0 0 0 0 0 0 0
7.4882 15.9816 -35.4705 0 0 0 0 0 0 0 0 0 0 0 0 0 0 0 0 0 0 0 0 0 0 0 0 0 0 0 0 0 0 0 0 0 0 0 0 0 0 0 0 0 0 0 0 0 0 0 0 0 0 0 -6.65 -9.5 0 -71.25 0 0 0 0 0 0 0 -90 0 0 0 0 0 0 0 0 0 7.65 10 -1 74.75 2 0 0.5 0.5 0 0 0 -83 0 0 0 0 0 0 0 0 0
7.4882 15.9816 -35.4705 0 0 0 0 0 0 0 0 0 0 0 0 0 0 0 0 0 0 0 0 0 0 0 0 0 0 0 0 0 0 0 0 0 0 0 0 0 0 0 0 0 0 0 0 0 0 0 0 0 0 0 -6.475 -9.25 0 -69.375 0 0 0 0 0 0 0 -90 0 0 0 0 0 0 0 0 0 7.975 10 -1.5 74.625 3 0 0.75 0.75 0 0 0 -79.5 0 0 0 0 0 0 0 0 0
7.4882 15.9816 -35.4705 0 0 0 0 0 0 0 0 0 0 0 0 0 0 0 0 0 0 0 0 0 0 0 0 0 0 0 0 0 0 0 0 0 0 0 0 0 0 0 0 0 0 0 0 0 0 0 0 0 0 0 -6.3 -9 0 -67.5 0 0 0 0 0 0 0 -90 0 0 0 0 0 0 0 0 0 8.3 10 -2 74.5 4 0 1 1 0 0 0 -76 0 0 0 0 0 0 0 0 0
7.4882 15.9816 -35.4705 0 0 0 0 0 0 0 0 0 0 0 0 0 0 0 0 0 0 0 0 0 0 0 0 0 0 0 0 0 0 0 0 0 0 0 0 0 0 0 0 0 0 0 0 0 0 0 0 0 0 0 -6.125 -8.75 0 -65.625 0 0 0 0 0 0 0 -90 0 0 0 0 0 0 0 0 0 8.625 10 -2.5 74.375 5 0 1.25 1.25 0 0 0 -72.5 0 0 0 0 0 0 0 0 0
7.4882 15.9816 -35.4705 0 0 0 0 0 0 0 0 0 0 0 0 0 0 0 0 0 0 0 0 0 0 0 0 0 0 0 0 0 0 0 0 0 0 0 0 0 0 0 0 0 0 0 0 0 0 0 0 0 0 0 -5.95 -8.5 0 -63.75 0 0 0 0 0 0 0 -90 0 0 0 0 0 0 0 0 0 8.95 10 -3 74.25 6 0 1.5 1.5 0 0 0 -69 0 0 0 0 0 0 0 0 0
7.4882 15.9816 -35.4705 0 0 0 0 0 0 0 0 0 0 0 0 0 0 0 0 0 0 0 0 0 0 0 0 0 0 0 0 0 0 0 0 0 0 0 0 0 0 0 0 0 0 0 0 0 0 0 0 0 0 0 -5.775 -8.25 0 -61.875 0 0 0 0 0 0 0 -90 0 0 0 0 0 0 0 0 0 9.275 10 -3.5 74.125 7 0 1.75 1.75 0 0 0 -65.5 0 0 0 0 0 0 0 0 0
7.4882 15.9816 -35.4705 0 0 0 0 0 0 0 0 0 0 0 0 0 0 0 0 0 0 0 0 0 0 0 0 0 0 0 0 0 0 0 0 0 0 0 0 0 0 0 0 0 0 0 0 0 0 0 0 0 0 0 -5.6 -8 0 -60 0 0 0 0 0 0 0 -90 0 0 0 0 0 0 0 0 0 9.6 10 -4 74 8 0 2 2 0 0 0 -62 0 0 0 0 0 0 0 0 0
7.4882 15.9816 -35.4705 0 0 0 0 0 0 0 0 0 0 0 0 0 0 0 0 0 0 0 0 0 0 0 0 0 0 0 0 0 0 0 0 0 0 0 0 0 0 0 0 0 0 0 0 0 0 0 0 0 0 0 -5.425 -7.75 0 -58.125 0 0 0 0 0 0 0 -90 0 0 0 0 0 0 0 0 0 9.925 10 -4.5 73.875 9 0 2.25 2.25 0 0 0 -58.5 0 0 0 0 0 0 0 0 0
7.4882 15.9816 -35.4705 0 0 0 0 0 0 0 0 0 0 0 0 0 0 0 0 0 0 0 0 0 0 0 0 0 0 0 0 0 0 0 0 0 0 0 0 0 0 0 0 0 0 0 0 0 0 0 0 0 0 0 -5.25 -7.5 0 -56.25 0 0 0 0 0 0 0 -90 0 0 0 0 0 0 0 0 0 10.25 10 -5 73.75 10 0 2.5 2.5 0 0 0 -55 0 0 0 0 0 0 0 0 0
7.4882 15.9816 -35.4705 0 0 0 0 0 0 0 0 0 0 0 0 0 0 0 0 0 0 0 0 0 0 0 0 0 0 0 0 0 0 0 0 0 0 0 0 0 0 0 0 0 0 0 0 0 0 0 0 0 0 0 -5.075 -7.25 0 -54.375 0 0 0 0 0 0 0 -90 0 0 0 0 0 0 0 0 0 10.575 10 -5.5 73.625 11 0 2.75 2.75 0 0 0 -51.5 0 0 0 0 0 0 0 0 0
7.4882 15.9816 -35.4705 0 0 0 0 0 0 0 0 0 0 0 0 0 0 0 0 0 0 0 0 0 0 0 0 0 0 0 0 0 0 0 0 0 0 0 0 0 0 0 0 0 0 0 0 0 0 0 0 0 0 0 -4.9 -7 0 -52.5 0 0 0 0 0 0 0 -90 0 0 0 0 0 0 0 0 0 10.9 10 -6 73.5 12 0 3 3 0 0 0 -48 0 0 0 0 0 0 0 0 0
7.4882 15.9816 -35.4705 0 0 0 0 0 0 0 0 0 0 0 0 0 0 0 0 0 0 0 0 0 0 0 0 0 0 0 0 0 0 0 0 0 0 0 0 0 0 0 0 0 0 0 0 0 0 0 0 0 0 0 -4.725 -6.75 0 -50.625 0 0 0 0 0 0 0 -90 0 0 0 0 0 0 0 0 0 11.225 10 -6.5 73.375 13 0 3.25 3.25 0 0 0 -44.5 0 0 0 0 0 0 0 0 0
7.4882 15.9816 -35.4705 0 0 0 0 0 0 0 0 0 0 0 0 0 0 0 0 0 0 0 0 0 0 0 0 0 0 0 0 0 0 0 0 0 0 0 0 0 0 0 0 0 0 0 0 0 0 0 0 0 0 0 -4.55 -6.5 0 -48.75 0 0 0 0 0 0 0 -90 0 0 0 0 0 0 0 0 0 11.55 10 -7 73.25 14 0 3.5 3.5 0 0 0 -41 0 0 0 0 0 0 0 0 0
7.4882 15.9816 -35.4705 0 0 0 0 0 0 0 0 0 0 0 0 0 0 0 0 0 0 0 0 0 0 0 0 0 0 0 0 0 0 0 0 0 0 0 0 0 0 0 0 0 0 0 0 0 0 0 0 0 0 0 -4.375 -6.25 0 -46.875 0 0 0 0 0 0 0 -90 0 0 0 0 0 0 0 0 0 11.875 10 -7.5 73.125 15 0 3.75 3.75 0 0 0 -37.5 0 0 0 0 0 0 0 0 0
7.4882 15.9816 -35.4705 0 0 0 0 0 0 0 0 0 0 0 0 0 0 0 0 0 0 0 0 0 0 0 0 0 0 0 0 0 0 0 0 0 0 0 0 0 0 0 0 0 0 0 0 0 0 0 0 0 0 0 -4.2 -6 0 -45 0 0 0 0 0 0 0 -90 0 0 0 0 0 0 0 0 0 12.2 10 -8 73 16 0 4 4 0 0 0 -34 0 0 0 0 0 0 0 0 0
7.4882 15.9816 -35.4705 0 0 0 0 0 0 0 0 0 0 0 0 0 0 0 0 0 0 0 0 0 0 0 0 0 0 0 0 0 0 0 0 0 0 0 0 0 0 0 0 0 0 0 0 0 0 0 0 0 0 0 -4.025 -5.75 0 -43.125 0 0 0 0 0 0 0 -90 0 0 0 0 0 0 0 0 0 12.525 10 -8.5 72.875 17 0 4.25 4.25 0 0 0 -30.5 0 0 0 0 0 0 0 0 0
7.4882 15.9816 -35.4705 0 0 0 0 0 0 0 0 0 0 0 0 0 0 0 0 0 0 0 0 0 0 0 0 0 0 0 0 0 0 0 0 0 0 0 0 0 0 0 0 0 0 0 0 0 0 0 0 0 0 0 -3.85 -5.5 0 -41.25 0 0 0 0 0 0 0 -90 0 0 0 0 0 0 0 0 0 12.85 10 -9 72.75 18 0 4.5 4.5 0 0 0 -27 0 0 0 0 0 0 0 0 0
7.4882 15.9816 -35.4705 0 0 0 0 0 0 0 0 0 0 0 0 0 0 0 0 0 0 0 0 0 0 0 0 0 0 0 0 0 0 0 0 0 0 0 0 0 0 0 0 0 0 0 0 0 0 0 0 0 0 0 -3.675 -5.25 0 -39.375 0 0 0 0 0 0 0 -90 0 0 0 0 0 0 0 0 0 13.175 10 -9.5 72.625 19 0 4.75 4.75 0 0 0 -23.5 0 0 0 0 0 0 0 0 0
7.4882 15.9816 -35.4705 0 0 0 0 0 0 0 0 0 0 0 0 0 0 0 0 0 0 0 0 0 0 0 0 0 0 0 0 0 0 0 0 0 0 0 0 0 0 0 0 0 0 0 0 0 0 0 0 0 0 0 -3.5 -5 0 -37.5 0 0 0 0 0 0 0 -90 0 0 0 0 0 0 0 0 0 13.5 10 -10 72.5 20 0 5 5 0 0 0 -20 0 0 0 0 0 0 0 0 0
7.4882 15.9816 -35.4705 0 0 0 0 0 0 0 0 0 0 0 0 0 0 0 0 0 0 0 0 0 0 0 0 0 0 0 0 0 0 0 0 0 0 0 0 0 0 0 0 0 0 0 0 0 0 0 0 0 0 0 -3.325 -4.75 0 -35.625 0 0 0 0 0 0 0 -90 0 0 0 0 0 0 0 0 0 13.825 10 -10.5 72.375 21 0 5.25 5.25 0 0 0 -16.5 0 0 0 0 0 0 0 0 0
7.4882 15.9816 -35.4705 0 0 0 0 0 0 0 0 0 0 0 0 0 0 0 0 0 0 0 0 0 0 0 0 0 0 0 0 0 0 0 0 0 0 0 0 0 0 0 0 0 0 0 0 0 0 0 0 0 0 0 -3.15 -4.5 0 -33.75 0 0 0 0 0 0 0 -90 0 0 0 0 0 0 0 0 0 14.15 10 -11 72.25 22 0 5.5 5.5 0 0 0 -13 0 0 0 0 0 0 0 0 0
